<svg xmlns="http://www.w3.org/2000/svg" x="0px" y="0px"
width="48" height="48"
viewBox="0 0 172 172"
style=" fill:#000000;"><defs><linearGradient x1="-35.11667" y1="53.56725" x2="88.59433" y2="177.27825" gradientUnits="userSpaceOnUse" id="color-1_4V3PMUWE1tYc_gr1"><stop offset="0" stop-color="#95a5a6"></stop><stop offset="1" stop-color="#21a366"></stop></linearGradient><linearGradient x1="-35.11667" y1="53.56725" x2="88.59433" y2="177.27825" gradientUnits="userSpaceOnUse" id="color-2_4V3PMUWE1tYc_gr2"><stop offset="0" stop-color="#95a5a6"></stop><stop offset="1" stop-color="#21a366"></stop></linearGradient><linearGradient x1="-33.58658" y1="52.03717" x2="90.12442" y2="175.74817" gradientUnits="userSpaceOnUse" id="color-3_4V3PMUWE1tYc_gr3"><stop offset="0" stop-color="#95a5a6"></stop><stop offset="1" stop-color="#21a366"></stop></linearGradient><linearGradient x1="-29.1755" y1="47.62608" x2="94.5355" y2="171.33708" gradientUnits="userSpaceOnUse" id="color-4_4V3PMUWE1tYc_gr4"><stop offset="0" stop-color="#95a5a6"></stop><stop offset="1" stop-color="#21a366"></stop></linearGradient><linearGradient x1="-33.61883" y1="52.06583" x2="90.09217" y2="175.77683" gradientUnits="userSpaceOnUse" id="color-5_4V3PMUWE1tYc_gr5"><stop offset="0" stop-color="#95a5a6"></stop><stop offset="1" stop-color="#21a366"></stop></linearGradient><linearGradient x1="16.2755" y1="2.17508" x2="139.9865" y2="125.88608" gradientUnits="userSpaceOnUse" id="color-6_4V3PMUWE1tYc_gr6"><stop offset="0" stop-color="#95a5a6"></stop><stop offset="1" stop-color="#21a366"></stop></linearGradient></defs><g fill="none" fill-rule="nonzero" stroke="none" stroke-width="1" stroke-linecap="butt" stroke-linejoin="miter" stroke-miterlimit="10" stroke-dasharray="" stroke-dashoffset="0" font-family="none" font-weight="none" font-size="none" text-anchor="none" style="mix-blend-mode: normal"><path d="M0,172v-172h172v172z" fill="none"></path><g><path d="M82.41667,154.08333v-10.75c0,-1.98158 1.60533,-3.58333 3.58333,-3.58333c1.978,0 3.58333,1.60175 3.58333,3.58333v10.75c0,1.98158 -1.60533,3.58333 -3.58333,3.58333c-1.978,0 -3.58333,-1.60175 -3.58333,-3.58333z" fill="#95a5a6"></path><path d="M35.3245,131.60867l7.60025,-7.60025c1.40108,-1.40108 3.66933,-1.3975 5.06683,0c1.3975,1.3975 1.40108,3.66575 0,5.06683l-7.60025,7.60025c-1.40108,1.40108 -3.66933,1.3975 -5.06683,0c-1.3975,-1.3975 -1.40108,-3.66575 0,-5.06683z" fill="url(#color-1_4V3PMUWE1tYc_gr1)"></path><path d="M47.99158,124.00842c1.3975,1.3975 1.40108,3.66575 0,5.06683l-7.60025,7.60025c-1.40108,1.40108 -3.66933,1.3975 -5.06683,0c-1.3975,-1.3975 -1.40108,-3.66575 0,-5.06683l7.60025,-7.60025c1.40108,-1.40108 3.66933,-1.40108 5.06683,0z" fill="url(#color-2_4V3PMUWE1tYc_gr2)"></path><path d="M39.4095,112.80333c0.98542,1.71283 0.39775,3.90583 -1.31867,4.89125l-9.31667,5.36067c-1.71642,0.989 -3.90583,0.39417 -4.89125,-1.31867c-0.98542,-1.71283 -0.39775,-3.90583 1.31867,-4.89125l9.31667,-5.36067c1.71642,-0.989 3.90583,-0.39417 4.89125,1.31867z" fill="url(#color-3_4V3PMUWE1tYc_gr3)"></path><path d="M34.08108,99.9105c0.51242,1.90992 -0.61992,3.87717 -2.53342,4.38958l-10.3845,2.78067c-1.9135,0.51242 -3.87717,-0.6235 -4.38958,-2.53342c-0.51242,-1.90992 0.61992,-3.87717 2.53342,-4.38958l10.3845,-2.78067c1.91708,-0.51242 3.87717,0.6235 4.38958,2.53342z" fill="url(#color-4_4V3PMUWE1tYc_gr4)"></path><path d="M121.78675,148.09917c-1.71283,0.989 -3.90583,0.40133 -4.89483,-1.31508l-5.36783,-9.31308c-0.989,-1.71642 -0.39775,-3.90583 1.31508,-4.89483c1.71283,-0.989 3.90583,-0.40133 4.89483,1.31508l5.36783,9.31308c0.989,1.71642 0.39775,3.90583 -1.31508,4.89483z" fill="#61e3a7"></path><path d="M104.47208,155.24792c-1.90992,0.50883 -3.87358,-0.6235 -4.386,-2.54058l-2.76992,-10.38808c-0.50883,-1.9135 0.62708,-3.87717 2.54058,-4.386c1.90992,-0.50883 3.87358,0.6235 4.386,2.54058l2.76992,10.38808c0.50883,1.91708 -0.62708,3.87717 -2.54058,4.386z" fill="#61e3a7"></path><path d="M67.39892,155.21208c-1.90992,-0.51242 -3.04583,-2.47608 -2.52983,-4.38958l2.79142,-10.38092c0.516,-1.9135 2.47967,-3.04225 4.38958,-2.52983c1.90992,0.51242 3.04583,2.47608 2.52983,4.38958l-2.79142,10.38092c-0.516,1.9135 -2.47967,3.04225 -4.38958,2.52983z" fill="#95a5a6"></path><path d="M50.09858,148.02392c-1.71283,-0.99258 -2.29692,-3.182 -1.30433,-4.89483l5.38575,-9.30233c0.99258,-1.71642 3.18558,-2.29692 4.89483,-1.30433c1.71283,0.99258 2.29692,3.182 1.30433,4.89483l-5.38575,9.30233c-0.989,1.71642 -3.182,2.29692 -4.89483,1.30433z" fill="url(#color-5_4V3PMUWE1tYc_gr5)"></path><path d="M86,14.33333c-39.57792,0 -71.66667,32.08875 -71.66667,71.66667c0,1.978 1.60175,3.58333 3.58333,3.58333h10.75c1.98158,0 3.58333,-1.60533 3.58333,-3.58333c0,-29.68433 24.06567,-53.75 53.75,-53.75c29.68433,0 53.75,24.06567 53.75,53.75c0,1.978 1.60175,3.58333 3.58333,3.58333h10.75c1.98158,0 3.58333,-1.60533 3.58333,-3.58333c0,-39.57792 -32.08875,-71.66667 -71.66667,-71.66667z" fill="url(#color-6_4V3PMUWE1tYc_gr6)"></path></g></g></svg>