<svg xmlns="http://www.w3.org/2000/svg" version="1.1" xmlns:xlink="http://www.w3.org/1999/xlink" xmlns:svgjs="http://svgjs.com/svgjs" width="100%" height="100%" viewBox="0 0 1000 600"><rect width="1000" height="600" x="0" y="0" fill="#eb5757"/><g><rect width="333.3333333333333" height="333.3333333333333" y="196.76842947546456" fill="#222222" transform="matrix(0.7161427560356473,0,0,0.716142756035647,0,39.728578886668245)" x="174.54624938964844"/><path d="M229.3172888745629 438.4351085507718L229.3172888745629 397.4239795445436L233.05865502951707 397.4239795445436L240.71406577734632 413.79965140738136Q251.90938450255527 433.4849933303709 269.7240433480677 433.4849933303709L269.7240433480677 433.4849933303709Q279.250137173374 433.4849933303709 283.91245499724 428.822675506505Q288.5747728211059 424.1603576826391 288.5747728211059 416.0732508400074L288.5747728211059 416.0732508400074Q288.5747728211059 411.2958140575274 284.94852562476575 407.46810868361285Q281.32227842842553 403.6404033096982 275.30731284084544 401.36680387707224L275.30731284084544 401.36680387707224L251.7079263249808 391.8119303121124Q240.51260759977185 387.2647314468604 234.09472565704283 380.84684950413146Q227.6480639746603 374.4289675614024 227.6480639746603 364.4711776412936L227.6480639746603 364.4711776412936Q227.6480639746603 351.83687193340995 235.5337126397175 345.418989990681Q243.4193613047747 338.9723283082984 255.42051274028148 338.9723283082984L255.42051274028148 338.9723283082984Q261.4354783278616 338.9723283082984 266.7309504241044 340.9581303443895Q271.9976427806937 342.91515264082705 275.5375507580734 345.6204481682554L275.5375507580734 345.6204481682554Q280.08474962332537 348.9301182284072 282.35834905595135 348.9301182284072L282.35834905595135 348.9301182284072Q285.06364458337976 348.9301182284072 285.6680191161031 345.188752073453L285.6680191161031 345.188752073453L286.0997152109055 341.04446956334994L289.81230162620614 341.04446956334994L289.81230162620614 372.55828448392526L286.0997152109055 372.55828448392526L283.19296150590264 365.30579009124494Q278.4155247234227 353.47731709365917 270.64499501697946 348.7286600508327Q262.87446531053627 343.9512232683528 255.21905456270702 343.9512232683528L255.21905456270702 343.9512232683528Q247.56364381487776 343.9512232683528 242.58474885482337 347.7789286422674Q237.60585389476904 351.63541375583554 237.60585389476904 358.45621205371356L237.60585389476904 358.45621205371356Q237.60585389476904 364.4711776412936 242.46962989620943 368.2988830152083Q247.3334058976498 372.12658838912284 255.85220883508387 375.66649636650254L255.85220883508387 375.66649636650254L278.21406654584825 384.9911320142345Q288.17185646595703 389.13541452433753 293.15075142601137 395.0352611533036Q298.1008666464122 400.9351077822698 298.1008666464122 411.49727223510195L298.1008666464122 411.49727223510195Q298.1008666464122 425.39788648773924 290.24399772100855 431.9308873890823Q282.35834905595135 438.4351085507718 269.52258517049324 438.4351085507718L269.52258517049324 438.4351085507718Q261.8383946830105 438.4351085507718 257.0897376401841 436.3629672957203Q252.31230085770417 434.2908260406688 247.76510199245223 430.77969780294256L247.76510199245223 430.77969780294256Q245.89441891497512 429.3407108202679 244.02373583749807 428.3046401927421Q242.15305276002098 427.26856956521635 240.71406577734632 427.26856956521635L240.71406577734632 427.26856956521635Q235.73517081729196 427.26856956521635 233.86448773981488 434.2908260406688L233.86448773981488 434.2908260406688L233.05865502951707 438.4351085507718L229.3172888745629 438.4351085507718ZM319.6568916468788 435.96005094057136L319.6568916468788 429.3407108202679L334.59357652704193 429.3407108202679Q340.17684601981966 429.3407108202679 340.17684601981966 423.72866158783665L340.17684601981966 423.72866158783665L340.17684601981966 300.63771508984513Q340.17684601981966 297.7597411244958 338.82419825610543 296.4070933607816Q337.47155049239126 295.0544455970674 334.59357652704193 295.0544455970674L334.59357652704193 295.0544455970674L319.6568916468788 295.0544455970674L319.6568916468788 288.4351054767639L378.71291741584736 288.4351054767639L378.71291741584736 295.0544455970674L364.8410829028635 295.0544455970674Q361.93432919786073 295.0544455970674 360.5816814341465 296.4070933607816Q359.22903367043233 297.7597411244958 359.22903367043233 300.63771508984513L359.22903367043233 300.63771508984513L359.22903367043233 364.8740939964425L406.88828253661745 316.1787745027316Q409.59357806404586 313.3008005373823 410.8311068691461 310.3940468323794Q412.06863567424625 307.4872931273766 412.06863567424625 303.74592697242247L412.06863567424625 303.74592697242247Q412.06863567424625 300.0333405571218 409.3921198864714 297.52950320726785Q406.68682435904304 295.0544455970674 402.7440000265144 295.0544455970674L402.7440000265144 295.0544455970674L397.1607305337367 295.0544455970674L397.1607305337367 288.4351054767639L451.8710156150277 288.4351054767639L451.8710156150277 295.0544455970674L443.58245059482164 295.0544455970674Q436.73287255729014 295.0544455970674 424.9331792993579 307.2858349498021L424.9331792993579 307.2858349498021L390.1096943186308 342.5122362856781L432.3871318696127 420.21753335011044Q435.09242739704104 425.39788648773924 438.40209745719284 427.3549087841768Q441.7117675173445 429.3407108202679 447.92819128249914 429.3407108202679L447.92819128249914 429.3407108202679L454.7777693200306 429.3407108202679L454.7777693200306 435.96005094057136L392.1818355736823 435.96005094057136L392.1818355736823 429.3407108202679L406.08244982631965 429.3407108202679Q408.35604925894563 429.3407108202679 409.99649441919473 427.98806305655364Q411.66571931909743 426.6354152928395 411.66571931909743 424.9661903929368L411.66571931909743 424.9661903929368Q411.66571931909743 423.72866158783665 411.2628029639485 422.174555646548Q410.8311068691461 420.6204497052594 410.22673233642274 419.785837255308L410.22673233642274 419.785837255308L376.4393179832214 356.3840707986619L359.22903367043233 373.79581328902555L359.22903367043233 423.72866158783665Q359.22903367043233 429.3407108202679 364.8410829028635 429.3407108202679L364.8410829028635 429.3407108202679L378.71291741584736 429.3407108202679L378.71291741584736 435.96005094057136L319.6568916468788 435.96005094057136Z " fill="#eb5757" transform="matrix(0.7161427560356473,0,0,0.716142756035647,0,39.728578886668245)"/><path d="M592.4957212717381 403.710836986931L592.4957212717381 372.19358529689407L595.3709793206538 372.19358529689407L601.2541996361273 384.77836860330183Q609.8578564132672 399.9066494145195 623.5485082000271 399.9066494145195L623.5485082000271 399.9066494145195Q630.8693575399584 399.9066494145195 634.4523714162995 396.32363553817856Q638.0353852926405 392.7406216618375 638.0353852926405 386.5256408022583L638.0353852926405 386.5256408022583Q638.0353852926405 382.854157447489 635.248596722153 379.9125472897523Q632.4618081516655 376.9709371320155 627.8392779037935 375.2236649330591L627.8392779037935 375.2236649330591L609.7030348260179 367.88069822352065Q601.099378048878 364.38615382560783 596.1672046265073 359.4539804032371Q591.2129138345296 354.52180698086636 591.2129138345296 346.86919709682934L591.2129138345296 346.86919709682934Q591.2129138345296 337.1596718393373 597.2730731068594 332.2274984169667Q603.3332323791894 327.2732076249889 612.5561755053265 327.2732076249889L612.5561755053265 327.2732076249889Q617.1787057531985 327.2732076249889 621.2483017608945 328.79930612787496Q625.2957803989834 330.30328726115386 628.0162168606498 332.3823200042159L628.0162168606498 332.3823200042159Q631.5107612585628 334.92581750902593 633.2580334575191 334.92581750902593L633.2580334575191 334.92581750902593Q635.3370662005811 334.92581750902593 635.8015309623291 332.0505594601103L635.8015309623291 332.0505594601103L636.1332915064347 328.86565823669605L638.9864321857433 328.86565823669605L638.9864321857433 353.08417795640855L636.1332915064347 353.08417795640855L633.8994371761235 347.5106008154337Q630.2279538213542 338.42036190693875 624.2562640274525 334.7709959217766Q618.2845742335508 331.0995125670074 612.4013539180771 331.0995125670074L612.4013539180771 331.0995125670074Q606.5181336026036 331.0995125670074 602.6918286605851 334.04112272474424Q598.8655237185666 337.004850252088 598.8655237185666 342.24666684895726L598.8655237185666 342.24666684895726Q598.8655237185666 346.86919709682934 602.603359182157 349.81080725456616Q606.3411946457472 352.752417412303 612.8879360494321 355.47285387396926L612.8879360494321 355.47285387396926L630.0731322341048 362.63888162665137Q637.7257421181419 365.82378285006564 641.5520470601605 370.3578436195095Q645.3562346325718 374.89190438895344 645.3562346325718 383.00897903473833L645.3562346325718 383.00897903473833Q645.3562346325718 393.6916685549403 639.318192729849 398.71231145573915Q633.2580334575191 403.710836986931 623.3936866127777 403.710836986931L623.3936866127777 403.710836986931Q617.4883489276972 403.710836986931 613.838982942535 402.11838637522385Q610.1674995877659 400.5259357635167 606.6729551898529 397.82761667145746L606.6729551898529 397.82761667145746Q605.2353261653951 396.72174819110523 603.7976971409373 395.9255228852518Q602.3600681164794 395.1292975793981 601.2541996361273 395.1292975793981L601.2541996361273 395.1292975793981Q597.4278946941088 395.1292975793981 595.990265669651 400.5259357635167L595.990265669651 400.5259357635167L595.3709793206538 403.710836986931L592.4957212717381 403.710836986931ZM656.5033889145218 401.8087432007253L656.5033889145218 397.9824382587068L665.4388062357673 397.9824382587068Q667.3409000219731 397.9824382587068 668.1371253278267 397.1862129528532Q668.9333506336802 396.38998764699966 668.9333506336802 394.48789386079386L668.9333506336802 394.48789386079386L668.9333506336802 295.755955934952Q668.9333506336802 293.83174477913917 668.1371253278267 293.0355194732856Q667.3409000219731 292.2392941674321 665.4388062357673 292.2392941674321L665.4388062357673 292.2392941674321L656.5033889145218 292.2392941674321L656.5033889145218 288.4351065950206L680.3901480901286 288.4351065950206L680.3901480901286 342.24666684895726L681.031551808733 342.4014884362066Q684.7030351635021 334.7709959217766 690.1217907172278 331.03316045818633Q695.5184289013464 327.2732076249889 702.0651703050312 327.2732076249889L702.0651703050312 327.2732076249889Q713.676789348729 327.2732076249889 718.5426106622785 334.439235377671Q723.386314606221 341.605263130353 723.386314606221 351.64654893195075L723.386314606221 351.64654893195075L723.386314606221 394.48789386079386Q723.386314606221 396.38998764699966 724.1825399120746 397.1862129528532Q724.9787652179282 397.9824382587068 726.902976373741 397.9824382587068L726.902976373741 397.9824382587068L733.5824219950681 397.9824382587068L733.5824219950681 401.8087432007253L701.7334097609256 401.8087432007253L701.7334097609256 397.9824382587068L708.4349727518597 397.9824382587068Q710.3370665380655 397.9824382587068 711.1332918439191 397.1862129528532Q711.9295171497727 396.38998764699966 711.9295171497727 394.48789386079386L711.9295171497727 394.48789386079386L711.9295171497727 348.6164692957858Q711.9295171497727 341.605263130353 709.1427285792852 336.6730897079824Q706.3559400087977 331.74091628561166 699.6764943874706 331.74091628561166L699.6764943874706 331.74091628561166Q694.1029172464956 331.74091628561166 689.723678064301 335.63357333645126Q685.3444388821064 339.548347756898 682.8672934861175 346.31626285665334Q680.3901480901286 353.08417795640855 680.3901480901286 361.3560741894428L680.3901480901286 361.3560741894428L680.3901480901286 394.48789386079386Q680.3901480901286 396.38998764699966 681.1863733959822 397.1862129528532Q681.9825987018357 397.9824382587068 683.9068098576486 397.9824382587068L683.9068098576486 397.9824382587068L690.5862554789757 397.9824382587068L690.5862554789757 401.8087432007253L656.5033889145218 401.8087432007253ZM778.1710391228677 403.710836986931Q769.4125607584785 403.710836986931 762.0917114185471 398.5353724988829Q754.7708620786158 393.3599080108347 750.5464444836705 384.60142964644547Q746.3220268887252 375.84295128205633 746.3220268887252 365.49202230595995L746.3220268887252 365.49202230595995Q746.3220268887252 355.1410933298637 750.5464444836705 346.38261496547443Q754.7708620786158 337.6241366010852 762.0917114185471 332.4486721130371Q769.4125607584785 327.2732076249889 778.1710391228677 327.2732076249889L778.1710391228677 327.2732076249889Q786.9295174872569 327.2732076249889 794.2503668271883 332.4486721130371Q801.5933335367267 337.6241366010852 805.7956337620649 346.38261496547443Q810.0200513570103 355.1410933298637 810.0200513570103 365.49202230595995L810.0200513570103 365.49202230595995Q810.0200513570103 375.84295128205633 805.7956337620649 384.60142964644547Q801.5933335367267 393.3599080108347 794.2503668271883 398.5353724988829Q786.9295174872569 403.710836986931 778.1710391228677 403.710836986931L778.1710391228677 403.710836986931ZM778.1710391228677 399.9066494145195Q787.7257427931105 399.9066494145195 791.8616909096276 390.9048799844528Q796.0197563957518 381.9031105543862 796.0197563957518 365.49202230595995L796.0197563957518 365.49202230595995Q796.0197563957518 349.1030514271408 791.8616909096276 340.1012819970741Q787.7257427931105 331.0995125670074 778.1710391228677 331.0995125670074L778.1710391228677 331.0995125670074Q768.616335452625 331.0995125670074 764.4803873361078 340.1012819970741Q760.3444392195906 349.1030514271408 760.3444392195906 365.49202230595995L760.3444392195906 365.49202230595995Q760.3444392195906 381.9031105543862 764.4803873361078 390.9048799844528Q768.616335452625 399.9066494145195 778.1710391228677 399.9066494145195L778.1710391228677 399.9066494145195ZM822.118252532063 438.4351072699892L822.118252532063 434.6088023279707L830.4122661347043 434.6088023279707Q832.3143599209101 434.6088023279707 833.1105852267635 433.8125770221171Q833.9068105326171 433.01635171626356 833.9068105326171 431.1142579300579L833.9068105326171 431.1142579300579L833.9068105326171 336.51826812073307Q833.9068105326171 334.6161743345273 833.1105852267635 333.8199490286738Q832.3143599209101 333.02372372282025 830.4122661347043 333.02372372282025L830.4122661347043 333.02372372282025L822.118252532063 333.02372372282025L822.118252532063 329.19741878080174L845.3857253586726 329.19741878080174L845.3857253586726 340.9859767813558L846.0050117076698 341.14079836860515Q849.0350913438349 334.7709959217766 853.7460910701351 331.03316045818633Q858.4349734268283 327.2732076249889 864.4951326991581 327.2732076249889L864.4951326991581 327.2732076249889Q871.9708036263389 327.2732076249889 878.4290755515956 332.2938505257878Q884.8652301072452 337.31449342658664 888.6915350492638 346.07297179097577Q892.5178399912822 354.831450155365 892.5178399912822 365.49202230595995L892.5178399912822 365.49202230595995Q892.5178399912822 376.1747118261619 888.6915350492638 384.93319019055116Q884.8652301072452 393.6916685549403 878.4290755515956 398.71231145573915Q871.9708036263389 403.710836986931 864.4951326991581 403.710836986931L864.4951326991581 403.710836986931Q858.280151839579 403.710836986931 853.3479784172083 399.66335834884205Q848.3936876252305 395.5937623411461 846.0050117076698 389.8653636129218L846.0050117076698 389.8653636129218L845.3857253586726 390.0201852001711L845.3857253586726 431.1142579300579Q845.3857253586726 433.01635171626356 846.1819506645263 433.8125770221171Q846.9781759703799 434.6088023279707 848.8802697565856 434.6088023279707L848.8802697565856 434.6088023279707L857.1521659896198 434.6088023279707L857.1521659896198 438.4351072699892L822.118252532063 438.4351072699892ZM862.7257431305948 399.26524569591527Q870.533174601881 399.26524569591527 874.5143011311488 390.50676733152613Q878.4954276604167 381.7482889671369 878.4954276604167 365.49202230595995L878.4954276604167 365.49202230595995Q878.4954276604167 349.25787301439004 874.5143011311488 340.4993946500009Q870.533174601881 331.74091628561166 862.7257431305948 331.74091628561166L862.7257431305948 331.74091628561166Q857.9483912954734 331.74091628561166 853.9672647662055 335.2354606835246Q849.9861382369377 338.75212245104444 847.6859317978052 344.87863383219553Q845.3857253586726 351.0051452133465 845.3857253586726 358.1711729660286L845.3857253586726 358.1711729660286L845.3857253586726 372.8349890154984Q845.3857253586726 380.0010167681804 847.6859317978052 386.1275281493315Q849.9861382369377 392.2540395304825 853.9672647662055 395.7485839283954Q857.9483912954734 399.26524569591527 862.7257431305948 399.26524569591527L862.7257431305948 399.26524569591527ZM949.2046582941346 401.8087432007253L949.2046582941346 397.9824382587068L957.4765545271689 397.9824382587068Q959.4007656829816 397.9824382587068 960.1969909888351 397.1862129528532Q960.9932162946886 396.38998764699966 960.9932162946886 394.48789386079386L960.9932162946886 394.48789386079386L960.9932162946886 295.755955934952Q960.9932162946886 293.83174477913917 960.1969909888351 293.0355194732856Q959.4007656829816 292.2392941674321 957.4765545271689 292.2392941674321L957.4765545271689 292.2392941674321L949.2046582941346 292.2392941674321L949.2046582941346 288.4351065950206L972.4500137511372 288.4351065950206L972.4500137511372 369.4731488352278L994.1029185964328 343.04289215481083Q995.8723081649962 341.14079836860515 996.4252424051723 340.0128125186459Q996.9781766453484 338.9069440382938 996.9781766453484 337.1596718393373L996.9781766453484 337.1596718393373Q996.9781766453484 335.08063909627526 995.4741955120694 334.04112272474424Q993.9480970091835 333.02372372282025 991.5594210916227 333.02372372282025L991.5594210916227 333.02372372282025L987.4234729751056 333.02372372282025L987.4234729751056 329.19741878080174L1019.9138889278524 329.19741878080174L1019.9138889278524 333.02372372282025L1014.8047765486253 333.02372372282025Q1010.5140068448588 333.02372372282025 1007.1742840341954 335.2354606835246Q1003.8345612235319 337.46931501383597 999.5216741501583 342.7332489803123L999.5216741501583 342.7332489803123L987.4234729751056 357.52976924742427L1012.2612790438154 392.8954432490867Q1014.1854901996281 395.5937623411461 1015.6010018544789 396.78810029992644Q1017.0386308789368 397.9824382587068 1019.5821283837467 397.9824382587068L1019.5821283837467 397.9824382587068L1022.767029607161 397.9824382587068L1022.767029607161 401.8087432007253L989.0159235868127 401.8087432007253L989.0159235868127 397.9824382587068L993.1518717033298 397.9824382587068Q995.230904446392 397.9824382587068 996.3367729267441 397.27468243128135Q997.4647587767033 396.544809234249 997.4647587767033 394.7975370352925L997.4647587767033 394.7975370352925Q997.4647587767033 393.05026483633605 996.9781766453484 391.94439635598394Q996.4915945139934 390.8164105060247 995.3857260336413 389.0691383070682L995.3857260336413 389.0691383070682L979.7708630910686 366.7748297431684L972.4500137511372 375.688129694807L972.4500137511372 394.48789386079386Q972.4500137511372 396.38998764699966 973.2462390569908 397.1862129528532Q974.0424643628444 397.9824382587068 975.9666755186571 397.9824382587068L975.9666755186571 397.9824382587068L981.053670528277 397.9824382587068L981.053670528277 401.8087432007253L949.2046582941346 401.8087432007253ZM1055.5892061040133 403.710836986931Q1047.140370914123 403.710836986931 1041.0138595329718 399.57488887041393Q1034.8873481518208 395.43894075389676 1034.8873481518208 384.93319019055116L1034.8873481518208 384.93319019055116Q1034.8873481518208 376.81611554476615 1039.023296268338 372.19358529689407Q1043.1592443848551 367.571055049022 1048.6443520474018 365.5804917843882Q1054.1515770795556 363.58992851975427 1061.959008550842 362.15229949529635L1061.959008550842 362.15229949529635L1076.6007072307048 359.4539804032371L1076.6007072307048 345.91815020372655Q1076.6007072307048 331.0995125670074 1061.7820695939856 331.0995125670074L1061.7820695939856 331.0995125670074Q1056.3854314098671 331.0995125670074 1051.9177227492441 333.8863011374949Q1047.4500140886216 336.6730897079824 1047.4500140886216 340.18975147550225L1047.4500140886216 340.18975147550225Q1047.4500140886216 341.7822020872094 1047.9365962199763 342.57842739306295L1047.9365962199763 342.57842739306295Q1048.246239394475 343.04289215481083 1048.9761125915074 343.52947428616585Q1049.683868418933 343.9939390479137 1050.325272137537 344.1708780047701L1050.325272137537 344.1708780047701Q1053.2005301864529 344.96710331062366 1054.7045113197319 346.38261496547443Q1056.2084924530106 347.82024398993224 1056.2084924530106 350.36374149474227L1056.2084924530106 350.36374149474227Q1056.2084924530106 353.7255816750129 1054.2179291883767 355.1410933298637Q1052.2273659237428 356.5787223543215 1049.219403657185 356.5787223543215L1049.219403657185 356.5787223543215Q1045.702741889665 356.5787223543215 1042.8496012103565 353.8804032622621Q1039.9743431614409 351.15996680059584 1039.9743431614409 346.07297179097577L1039.9743431614409 346.07297179097577Q1039.9743431614409 340.18975147550225 1043.2477138632833 335.87686440212883Q1046.4989671955186 331.58609469836233 1051.6744316835668 329.4407098464792Q1056.849896171615 327.2732076249889 1062.2686517253405 327.2732076249889L1062.2686517253405 327.2732076249889Q1072.7744022886864 327.2732076249889 1080.4270121727232 332.7804326571427Q1088.0575046871531 338.26554031968953 1088.0575046871531 349.8992767329943L1088.0575046871531 349.8992767329943L1088.0575046871531 389.0691383070682Q1088.0575046871531 397.0313913656039 1093.011795479131 397.0313913656039L1093.011795479131 397.0313913656039Q1096.9929220083989 397.0313913656039 1098.7401942073552 392.4088611177318Q1100.4874664063118 387.78633086985974 1100.4874664063118 381.10688524853265L1100.4874664063118 381.10688524853265L1103.3627244552272 381.10688524853265Q1103.3627244552272 390.66158891877535 1100.57593588474 397.1862129528532Q1097.7891473142524 403.710836986931 1090.6231195615703 403.710836986931L1090.6231195615703 403.710836986931Q1083.7667349833869 403.710836986931 1080.338542694295 399.66335834884205Q1076.9103504052032 395.5937623411461 1076.6007072307048 388.427734588464L1076.6007072307048 388.427734588464L1075.8044819248512 388.11809141396543Q1073.4158060072905 393.6916685549403 1068.085519931993 398.71231145573915Q1062.7552338566954 403.710836986931 1055.5892061040133 403.710836986931L1055.5892061040133 403.710836986931ZM1058.1327036088235 397.9824382587068Q1065.2987313615054 397.9824382587068 1069.3462099995945 392.3425090089107Q1073.4158060072905 386.6804623895075 1076.6007072307048 377.9219840251184L1076.6007072307048 377.9219840251184L1076.6007072307048 362.7937032139007L1062.7552338566954 365.82378285006564Q1055.1026239726584 367.4162334617728 1051.6744316835668 372.10511581846595Q1048.246239394475 376.81611554476615 1048.246239394475 385.39765495229904L1048.246239394475 385.39765495229904Q1048.246239394475 392.7406216618375 1051.27631903064 395.35047127546864Q1054.3063986668049 397.9824382587068 1058.1327036088235 397.9824382587068L1058.1327036088235 397.9824382587068ZM1112.2760244068659 401.8087432007253L1112.2760244068659 397.9824382587068L1118.9554700281928 397.9824382587068Q1120.8796811840057 397.9824382587068 1121.6759064898592 397.1862129528532Q1122.4721317957128 396.38998764699966 1122.4721317957128 394.48789386079386L1122.4721317957128 394.48789386079386L1122.4721317957128 336.51826812073307Q1122.4721317957128 334.6161743345273 1121.6759064898592 333.8199490286738Q1120.8796811840057 333.02372372282025 1118.9554700281928 333.02372372282025L1118.9554700281928 333.02372372282025L1112.2760244068659 333.02372372282025L1112.2760244068659 329.19741878080174L1133.9289292521612 329.19741878080174L1133.9289292521612 345.121924897873L1134.5703329707655 345.2767464851222Q1137.910055781429 337.004850252088 1143.2403418567267 332.13902893853844Q1148.570627932024 327.2732076249889 1154.630787204354 327.2732076249889L1154.630787204354 327.2732076249889Q1160.6909464766838 327.2732076249889 1164.4951340490952 330.78986939250876Q1168.321438991114 334.2844137904217 1168.321438991114 340.3445730627516L1168.321438991114 340.3445730627516Q1168.321438991114 343.8391174606644 1165.866410964732 347.178840271328Q1163.3892655687432 350.54068045159863 1159.5629606267246 350.54068045159863L1159.5629606267246 350.54068045159863Q1156.5328809905595 350.54068045159863 1154.4759656171047 348.9482298398915Q1152.3969328740427 347.35577922818436 1152.3969328740427 344.48052117926864L1152.3969328740427 344.48052117926864Q1152.3969328740427 341.14079836860515 1155.581834097457 338.75212245104444L1155.581834097457 338.75212245104444Q1157.0194631219147 337.80107555794154 1157.72721894934 337.004850252088Q1158.4570921463724 336.2086249462344 1158.4570921463724 334.92581750902593L1158.4570921463724 334.92581750902593Q1158.4570921463724 333.4881884845681 1157.1079326003428 332.62561106989347Q1155.7366556847062 331.74091628561166 1153.3479797671453 331.74091628561166L1153.3479797671453 331.74091628561166Q1148.4158063447746 331.74091628561166 1143.8817455753308 336.51826812073307Q1139.347684805887 341.2956199558545 1136.6272483442208 348.9482298398915Q1133.9289292521612 356.5787223543215 1133.9289292521612 364.87273595696274L1133.9289292521612 364.87273595696274L1133.9289292521612 394.48789386079386Q1133.9289292521612 396.38998764699966 1134.7251545580148 397.1862129528532Q1135.5213798638683 397.9824382587068 1137.4234736500741 397.9824382587068L1137.4234736500741 397.9824382587068L1144.1250366410084 397.9824382587068L1144.1250366410084 401.8087432007253L1112.2760244068659 401.8087432007253ZM1204.3063993417734 403.710836986931Q1197.1403715890915 403.710836986931 1192.4514892323982 398.62384197731103Q1187.762606875705 393.5368469676911 1187.762606875705 384.77836860330183L1187.762606875705 384.77836860330183L1187.762606875705 333.64301007181746L1175.9740488751509 333.64301007181746L1175.9740488751509 329.19741878080174L1179.4685932730636 329.19741878080174Q1186.6346210257457 329.19741878080174 1190.7042170334419 321.4784567879435Q1194.7516956715308 313.73737742547826 1194.7516956715308 304.35961271209186L1194.7516956715308 304.35961271209186L1194.7516956715308 298.6090966142606L1199.2194043321535 298.6090966142606L1199.2194043321535 329.19741878080174L1218.9702153912433 329.19741878080174L1218.9702153912433 333.64301007181746L1199.2194043321535 333.64301007181746L1199.2194043321535 385.5745939091554Q1199.2194043321535 390.3519457442768 1201.121498118359 393.5368469676911Q1203.045709274172 396.72174819110523 1207.668239522044 396.72174819110523L1207.668239522044 396.72174819110523Q1218.9702153912433 396.72174819110523 1218.9702153912433 377.6123408506197L1218.9702153912433 377.6123408506197L1221.8233560705519 377.6123408506197Q1221.8233560705519 388.27291300121465 1218.7269243255657 395.9918749940729Q1215.6304925805798 403.710836986931 1204.3063993417734 403.710836986931L1204.3063993417734 403.710836986931Z " fill="#222222" transform="matrix(0.7161427560356473,0,0,0.716142756035647,0,39.728578886668245)"/></g></svg>